HIERARCHY
ROOT Root
{
  OFFSET 0.0 0.0 0.0
  CHANNELS 6 Xposition Yposition Zposition Zrotation Yrotation Xrotation
  JOINT Hips
  {
    OFFSET 0.0 100.0 0.0
    CHANNELS 6 Xposition Yposition Zposition Zrotation Yrotation Xrotation
    JOINT Spine1
    {
      OFFSET 5.003913 -0.037094 -0.013727
      CHANNELS 3 Zrotation Yrotation Xrotation
      JOINT Spine2
      {
        OFFSET 7.125363 -1e-06 0.0
        CHANNELS 3 Zrotation Yrotation Xrotation
        JOINT Chest
        {
          OFFSET 7.594027 1e-06 0.0
          CHANNELS 3 Zrotation Yrotation Xrotation
          JOINT Neck1
          {
            OFFSET 26.313086 -0.460272 -0.181672
            CHANNELS 3 Zrotation Yrotation Xrotation
            JOINT Neck2
            {
              OFFSET 8.045911 0.0 0.0
              CHANNELS 3 Zrotation Yrotation Xrotation
              JOINT Head
              {
                OFFSET 6.432774 0.0 0.0
                CHANNELS 3 Zrotation Yrotation Xrotation
                JOINT HeadEnd
                {
                  OFFSET 16.169773 0.06451 0.00362
                  CHANNELS 3 Zrotation Yrotation Xrotation
                }
                JOINT Jaw
                {
                  OFFSET 0.108741 3.12938 0.002639
                  CHANNELS 3 Zrotation Yrotation Xrotation
                }
                JOINT LeftEye
                {
                  OFFSET 4.45173 8.166359 3.206392
                  CHANNELS 3 Zrotation Yrotation Xrotation
                }
                JOINT RightEye
                {
                  OFFSET 4.436895 8.135758 -3.222429
                  CHANNELS 3 Zrotation Yrotation Xrotation
                }
              }
            }
          }
          JOINT LeftShoulder
          {
            OFFSET 23.218927 5.195579 1.621656
            CHANNELS 3 Zrotation Yrotation Xrotation
            JOINT LeftArm
            {
              OFFSET 15.902118 2e-06 -2e-06
              CHANNELS 3 Zrotation Yrotation Xrotation
              JOINT LeftForeArm
              {
                OFFSET 28.739307 0.0 -1e-06
                CHANNELS 3 Zrotation Yrotation Xrotation
                JOINT LeftHand
                {
                  OFFSET 27.093981 -4e-06 0.0
                  CHANNELS 3 Zrotation Yrotation Xrotation
                  JOINT LeftHandThumb1
                  {
                    OFFSET 2.276781 3.380274 0.83384
                    CHANNELS 3 Zrotation Yrotation Xrotation
                    JOINT LeftHandThumb2
                    {
                      OFFSET 4.705309 -1e-06 -1e-06
                      CHANNELS 3 Zrotation Yrotation Xrotation
                      JOINT LeftHandThumb3
                      {
                        OFFSET 2.798515 0.0 3e-06
                        CHANNELS 3 Zrotation Yrotation Xrotation
                        JOINT LeftHandThumbEnd
                        {
                          OFFSET 3.180793 4e-06 -4e-06
                          CHANNELS 3 Zrotation Yrotation Xrotation
                        }
                      }
                    }
                  }
                  JOINT LeftHandIndex1
                  {
                    OFFSET 3.247786 2.352677 0.137192
                    CHANNELS 3 Zrotation Yrotation Xrotation
                    JOINT LeftHandIndex2
                    {
                      OFFSET 6.367095 1e-06 0.0
                      CHANNELS 3 Zrotation Yrotation Xrotation
                      JOINT LeftHandIndex3
                      {
                        OFFSET 3.662364 0.0 0.0
                        CHANNELS 3 Zrotation Yrotation Xrotation
                        JOINT LeftHandIndex4
                        {
                          OFFSET 2.329242 4e-06 -4e-06
                          CHANNELS 3 Zrotation Yrotation Xrotation
                          JOINT LeftHandIndexEnd
                          {
                            OFFSET 2.767823 1e-06 0.0
                            CHANNELS 3 Zrotation Yrotation Xrotation
                          }
                        }
                      }
                    }
                  }
                  JOINT LeftHandMiddle1
                  {
                    OFFSET 3.163612 0.945023 -0.406112
                    CHANNELS 3 Zrotation Yrotation Xrotation
                    JOINT LeftHandMiddle2
                    {
                      OFFSET 6.276789 3e-06 0.0
                      CHANNELS 3 Zrotation Yrotation Xrotation
                      JOINT LeftHandMiddle3
                      {
                        OFFSET 4.35652 -1e-06 4e-06
                        CHANNELS 3 Zrotation Yrotation Xrotation
                        JOINT LeftHandMiddle4
                        {
                          OFFSET 2.996877 0.0 8e-06
                          CHANNELS 3 Zrotation Yrotation Xrotation
                          JOINT LeftHandMiddleEnd
                          {
                            OFFSET 2.323256 3e-06 -4e-06
                            CHANNELS 3 Zrotation Yrotation Xrotation
                          }
                        }
                      }
                    }
                  }
                  JOINT LeftHandRing1
                  {
                    OFFSET 2.882606 -0.309162 0.107445
                    CHANNELS 3 Zrotation Yrotation Xrotation
                    JOINT LeftHandRing2
                    {
                      OFFSET 6.033198 0.0 4e-06
                      CHANNELS 3 Zrotation Yrotation Xrotation
                      JOINT LeftHandRing3
                      {
                        OFFSET 4.350578 3e-06 0.0
                        CHANNELS 3 Zrotation Yrotation Xrotation
                        JOINT LeftHandRing4
                        {
                          OFFSET 2.651321 2e-06 -7e-06
                          CHANNELS 3 Zrotation Yrotation Xrotation
                          JOINT LeftHandRingEnd
                          {
                            OFFSET 1.937663 1e-06 -4e-06
                            CHANNELS 3 Zrotation Yrotation Xrotation
                          }
                        }
                      }
                    }
                  }
                  JOINT LeftHandPinky1
                  {
                    OFFSET 2.865315 -1.525436 0.575687
                    CHANNELS 3 Zrotation Yrotation Xrotation
                    JOINT LeftHandPinky2
                    {
                      OFFSET 5.54936 1e-06 -8e-06
                      CHANNELS 3 Zrotation Yrotation Xrotation
                      JOINT LeftHandPinky3
                      {
                        OFFSET 3.070974 0.0 -4e-06
                        CHANNELS 3 Zrotation Yrotation Xrotation
                        JOINT LeftHandPinky4
                        {
                          OFFSET 1.549672 1e-06 0.0
                          CHANNELS 3 Zrotation Yrotation Xrotation
                          JOINT LeftHandPinkyEnd
                          {
                            OFFSET 1.952123 0.0 0.0
                            CHANNELS 3 Zrotation Yrotation Xrotation
                          }
                        }
                      }
                    }
                  }
                }
              }
            }
          }
          JOINT RightShoulder
          {
            OFFSET 23.161716 5.296122 -1.380114
            CHANNELS 3 Zrotation Yrotation Xrotation
            JOINT RightArm
            {
              OFFSET -16.027195 -2e-06 1.1e-05
              CHANNELS 3 Zrotation Yrotation Xrotation
              JOINT RightForeArm
              {
                OFFSET -28.736639 4e-06 2e-06
                CHANNELS 3 Zrotation Yrotation Xrotation
                JOINT RightHand
                {
                  OFFSET -27.133619 6e-06 0.0
                  CHANNELS 3 Zrotation Yrotation Xrotation
                  JOINT RightHandThumb1
                  {
                    OFFSET -2.274328 -3.351035 -0.83067
                    CHANNELS 3 Zrotation Yrotation Xrotation
                    JOINT RightHandThumb2
                    {
                      OFFSET -4.703594 -3e-06 2e-06
                      CHANNELS 3 Zrotation Yrotation Xrotation
                      JOINT RightHandThumb3
                      {
                        OFFSET -2.794935 -4e-06 -3e-06
                        CHANNELS 3 Zrotation Yrotation Xrotation
                        JOINT RightHandThumbEnd
                        {
                          OFFSET -3.183852 4e-06 1e-06
                          CHANNELS 3 Zrotation Yrotation Xrotation
                        }
                      }
                    }
                  }
                  JOINT RightHandIndex1
                  {
                    OFFSET -3.253496 -2.33755 -0.127667
                    CHANNELS 3 Zrotation Yrotation Xrotation
                    JOINT RightHandIndex2
                    {
                      OFFSET -6.344434 0.0 0.0
                      CHANNELS 3 Zrotation Yrotation Xrotation
                      JOINT RightHandIndex3
                      {
                        OFFSET -3.654871 0.0 -8e-06
                        CHANNELS 3 Zrotation Yrotation Xrotation
                        JOINT RightHandIndex4
                        {
                          OFFSET -2.327586 -1e-06 0.0
                          CHANNELS 3 Zrotation Yrotation Xrotation
                          JOINT RightHandIndexEnd
                          {
                            OFFSET -2.770001 3e-06 8e-06
                            CHANNELS 3 Zrotation Yrotation Xrotation
                          }
                        }
                      }
                    }
                  }
                  JOINT RightHandMiddle1
                  {
                    OFFSET -3.168223 -0.944764 0.411762
                    CHANNELS 3 Zrotation Yrotation Xrotation
                    JOINT RightHandMiddle2
                    {
                      OFFSET -6.266691 -1e-06 -4e-06
                      CHANNELS 3 Zrotation Yrotation Xrotation
                      JOINT RightHandMiddle3
                      {
                        OFFSET -4.348901 0.0 0.0
                        CHANNELS 3 Zrotation Yrotation Xrotation
                        JOINT RightHandMiddle4
                        {
                          OFFSET -3.00024 2e-06 -4e-06
                          CHANNELS 3 Zrotation Yrotation Xrotation
                          JOINT RightHandMiddleEnd
                          {
                            OFFSET -2.321477 -4e-06 -4e-06
                            CHANNELS 3 Zrotation Yrotation Xrotation
                          }
                        }
                      }
                    }
                  }
                  JOINT RightHandRing1
                  {
                    OFFSET -2.885654 0.293261 -0.119232
                    CHANNELS 3 Zrotation Yrotation Xrotation
                    JOINT RightHandRing2
                    {
                      OFFSET -6.032835 -1e-06 -4e-06
                      CHANNELS 3 Zrotation Yrotation Xrotation
                      JOINT RightHandRing3
                      {
                        OFFSET -4.33881 0.0 -4e-06
                        CHANNELS 3 Zrotation Yrotation Xrotation
                        JOINT RightHandRing4
                        {
                          OFFSET -2.654903 -4e-06 -4e-06
                          CHANNELS 3 Zrotation Yrotation Xrotation
                          JOINT RightHandRingEnd
                          {
                            OFFSET -1.935122 0.0 4e-06
                            CHANNELS 3 Zrotation Yrotation Xrotation
                          }
                        }
                      }
                    }
                  }
                  JOINT RightHandPinky1
                  {
                    OFFSET -2.866241 1.503904 -0.60527
                    CHANNELS 3 Zrotation Yrotation Xrotation
                    JOINT RightHandPinky2
                    {
                      OFFSET -5.553177 -2e-06 0.0
                      CHANNELS 3 Zrotation Yrotation Xrotation
                      JOINT RightHandPinky3
                      {
                        OFFSET -3.062664 -1e-06 -4e-06
                        CHANNELS 3 Zrotation Yrotation Xrotation
                        JOINT RightHandPinky4
                        {
                          OFFSET -1.546529 2e-06 4e-06
                          CHANNELS 3 Zrotation Yrotation Xrotation
                          JOINT RightHandPinkyEnd
                          {
                            OFFSET -1.952341 0.0 -4e-06
                            CHANNELS 3 Zrotation Yrotation Xrotation
                          }
                        }
                      }
                    }
                  }
                }
              }
            }
          }
        }
      }
    }
    JOINT LeftLeg
    {
      OFFSET -8.443107 2.567604 10.043214
      CHANNELS 3 Zrotation Yrotation Xrotation
      JOINT LeftShin
      {
        OFFSET 43.229198 1e-06 -1e-06
        CHANNELS 3 Zrotation Yrotation Xrotation
        JOINT LeftFoot
        {
          OFFSET 42.298611 1e-06 1e-06
          CHANNELS 3 Zrotation Yrotation Xrotation
          JOINT LeftToeBase
          {
            OFFSET 14.165858 1e-06 0.0
            CHANNELS 3 Zrotation Yrotation Xrotation
            JOINT LeftToeEnd
            {
              OFFSET 6.7141 -0.234461 0.0
              CHANNELS 3 Zrotation Yrotation Xrotation
            }
          }
        }
      }
    }
    JOINT RightLeg
    {
      OFFSET -8.303923 2.592729 -10.047278
      CHANNELS 3 Zrotation Yrotation Xrotation
      JOINT RightShin
      {
        OFFSET -43.369682 0.0 1e-06
        CHANNELS 3 Zrotation Yrotation Xrotation
        JOINT RightFoot
        {
          OFFSET -42.260784 4e-06 2e-06
          CHANNELS 3 Zrotation Yrotation Xrotation
          JOINT RightToeBase
          {
            OFFSET -14.222245 -2e-06 -1e-06
            CHANNELS 3 Zrotation Yrotation Xrotation
            JOINT RightToeEnd
            {
              OFFSET -6.660062 0.232574 -2e-06
              CHANNELS 3 Zrotation Yrotation Xrotation
            }
          }
        }
      }
    }
  }
}
MOTION
Frames: 4
Frame Time: 0.03333333333333333
0.0 0.0 0.0 0.0 -0.0 0.0 -0.057534 99.619659 0.489561 90.491631 0.54303 90.270134 -0.909934 1.672725 0.312122 -11.157398 0.066382 0.304702 15.564225 -0.27581 -1.367553 6.808443 -9.763938 2.91798 -2.445081 0.153732 8.054574 -47.249939 -1.389855 12.761457 8e-06 0.0 1e-06 0.082326 0.017909 -0.154456 0.327938 -0.189506 -0.076039 0.432415 0.211267 -0.213183 -92.237404 -80.08712 104.082817 44.023781 -11.132986 -75.135429 25.501827 1.178487 -0.657244 2.467365 7.167625 -72.976807 17.636625 -26.322733 52.411213 -19.466665 -14.395604 29.410395 -1e-06 -8.774821 -0.0 16.188536 -17.58761 6.376479 -0.609778 -1.795654 -3.889329 -4.807086 -11.046809 -2.937851 7e-06 -20.976017 -3e-06 -5.01997 -25.033556 -4.031881 6e-06 1e-06 1e-06 -10.634537 -5.686971 -3.565588 10.573275 -17.922951 -3.113903 4e-06 -13.821205 -1e-06 -0.501777 -31.181505 -4.027017 -12.532899 -61.065765 7.976133 -13.982716 -7.150198 -2.875043 13.772731 -8.401491 -3.218243 0.347738 -34.211552 0.77165 -0.963029 -17.73337 2.621017 2e-06 1e-06 1e-06 -17.346416 -20.095217 -4.201783 21.757561 -1.638375 3.866427 3e-06 -6.338822 0.0 -1.697589 -22.591742 -6.194006 -0.0 -2e-06 -1e-06 144.101746 -85.466202 47.950874 35.875256 -24.96306 -75.328453 45.824036 -2.663666 0.224764 -9.52138 8.368945 -69.589272 22.182114 -20.375893 49.933319 -16.701811 -16.743528 28.476528 -4e-06 -12.690599 -2e-06 15.800451 -17.547926 3.458884 -0.10592 -1.513857 -4.275884 -5.039041 -5.612872 -2.953556 5e-06 -11.02052 1e-06 -6.111293 -15.89533 -3.840473 0.0 1e-06 -1e-06 -10.283369 -5.680288 -4.34184 11.028292 -11.302404 -2.372632 -1.384269 -14.238579 -6.32012 -0.625438 -26.924183 -3.827601 -4.975993 -50.093475 -2.966105 -13.708521 -7.363478 -3.720941 18.141148 -14.052738 -3.242677 6e-06 -18.787266 -3e-06 -0.429711 -8.456043 2.555504 2e-06 -1e-06 0.0 -15.923536 -20.094481 -5.473588 30.41921 -7.190827 1.735922 3e-06 -8.162926 1e-06 -1.8619 -22.861467 -6.167942 1e-06 -3e-06 -1e-06 178.986694 -1.76415 -9.157372 15.694648 -0.073777 0.128817 -82.819443 -1.257356 -1.985447 -4.838172 1.41301 2.108581 -1.0 0.0 -0.0 -4.153204 -4.47449 4.127541 17.469372 -0.112894 0.199285 -82.048912 -0.740612 -4.607423 -4.961507 0.738075 1.692966 -1.000002 0.0 0.0 
0.0 0.0 0.0 0.0 -0.0 0.0 -0.029 99.6036 0.566693 90.511711 0.636797 90.229965 -0.945582 1.6724 0.340348 -11.181622 0.06971 0.31746 15.584769 -0.231187 -1.352123 7.258745 -9.974675 2.915153 -2.460977 0.120116 8.011716 -46.25153 -1.678775 12.669465 7e-06 -1e-06 0.0 0.076057 0.040351 -0.135984 0.314749 -0.167963 -0.068052 0.411425 0.234598 -0.184204 -93.482269 -79.984978 105.362022 43.964081 -11.443135 -75.214073 25.815411 1.188258 -0.567988 2.135482 7.0379 -72.899826 17.636623 -26.322733 52.411194 -19.466654 -14.395594 29.410381 0.0 -8.774821 -2e-06 16.226629 -17.582716 6.358699 -0.609778 -1.795653 -3.889328 -4.80709 -11.046812 -2.937849 5e-06 -20.976013 -1e-06 -5.019971 -25.033552 -4.031881 5e-06 1e-06 1e-06 -10.634535 -5.686972 -3.565584 10.573271 -17.922951 -3.113901 3e-06 -13.821209 -1e-06 -0.50178 -31.181511 -4.027014 -12.516282 -61.154297 7.95687 -13.982711 -7.150197 -2.875038 13.772726 -8.401489 -3.218243 0.347735 -34.211544 0.771655 -0.963032 -17.733366 2.62102 1e-06 -0.0 -1e-06 -17.346413 -20.095215 -4.20178 21.757555 -1.638374 3.866426 2e-06 -6.338825 0.0 -1.69759 -22.591747 -6.194006 1e-06 -3e-06 -2e-06 142.172165 -85.566063 50.015835 36.193768 -25.462494 -75.567009 46.851639 -2.677678 0.205243 -9.700788 8.552833 -68.675514 22.182117 -20.375898 49.933315 -16.701815 -16.743528 28.47653 -5e-06 -12.690602 -1e-06 15.769204 -17.51988 3.510595 -0.10592 -1.513856 -4.275882 -5.03904 -5.612873 -2.953556 5e-06 -11.020523 1e-06 -6.111294 -15.89533 -3.840469 1e-06 -0.0 -1e-06 -10.283371 -5.68029 -4.341836 11.028296 -11.302403 -2.372633 -1.384266 -14.238583 -6.320121 -0.625438 -26.924194 -3.827598 -5.008484 -50.129612 -2.927579 -13.708521 -7.363475 -3.720941 18.14115 -14.052741 -3.242675 7e-06 -18.787271 -3e-06 -0.429713 -8.456045 2.555505 2e-06 -0.0 0.0 -15.923534 -20.094481 -5.473583 30.41921 -7.190829 1.735924 4e-06 -8.162927 0.0 -1.861898 -22.861471 -6.16794 -0.0 -3e-06 -1e-06 179.173798 -1.722796 -9.127861 15.676503 -0.070728 0.121146 -82.895592 -1.302076 -1.948582 -4.794241 1.426972 2.113729 -1.0 0.0 -0.0 -4.02847 -4.509334 4.233418 17.530458 -0.101504 0.208981 -82.143555 -0.767119 -4.630825 -4.978646 0.734017 1.686855 -1.000003 0.0 -0.0 
0.0 0.0 0.0 0.0 -0.0 0.0 0.005352 99.586609 0.639073 90.532051 0.700559 90.204491 -0.985142 1.667632 0.338851 -11.219189 0.067148 0.329286 15.599344 -0.180965 -1.319309 7.673248 -10.141777 2.901783 -2.475338 0.100241 7.989383 -45.402496 -1.954785 12.55141 6e-06 -0.0 -1e-06 0.072088 0.059344 -0.124731 0.305545 -0.146944 -0.065159 0.39274 0.251937 -0.164487 -94.349266 -79.886444 106.215652 43.864357 -11.81751 -75.146965 26.25704 1.205627 -0.511816 1.900699 6.915412 -72.788574 17.636627 -26.322725 52.411175 -19.46665 -14.395592 29.410378 0.0 -8.774819 -3e-06 16.231764 -17.59791 6.35872 -0.609776 -1.795653 -3.889326 -4.807087 -11.046805 -2.93785 6e-06 -20.976011 -1e-06 -5.019968 -25.033546 -4.031882 6e-06 1e-06 1e-06 -10.634533 -5.686969 -3.565585 10.573271 -17.922945 -3.1139 4e-06 -13.821201 -1e-06 -0.501778 -31.181498 -4.027011 -12.454574 -61.117901 7.940047 -13.982712 -7.150196 -2.875043 13.772727 -8.40149 -3.218239 0.347736 -34.211536 0.771657 -0.963028 -17.733366 2.621021 0.0 0.0 -0.0 -17.346415 -20.095213 -4.20178 21.757555 -1.638374 3.866428 2e-06 -6.338822 1e-06 -1.697587 -22.591742 -6.194005 -1e-06 -3e-06 -3e-06 140.075195 -85.681938 52.259869 36.587944 -26.069542 -75.819885 47.924728 -2.632792 0.20368 -9.845255 8.768858 -67.928963 22.182119 -20.375902 49.933315 -16.701809 -16.743528 28.476526 -6e-06 -12.6906 0.0 15.774341 -17.499023 3.522364 -0.105919 -1.513854 -4.275878 -5.03904 -5.612871 -2.953556 3e-06 -11.02052 2e-06 -6.111295 -15.895328 -3.840472 1e-06 1e-06 -1e-06 -10.283369 -5.680288 -4.341837 11.028296 -11.302402 -2.372631 -1.384268 -14.238579 -6.320122 -0.625443 -26.924183 -3.827594 -5.011136 -50.081802 -2.885389 -13.708523 -7.363472 -3.72094 18.141146 -14.052739 -3.242672 7e-06 -18.78727 -0.0 -0.429712 -8.456041 2.555504 2e-06 -1e-06 -1e-06 -15.923538 -20.094482 -5.473579 30.41921 -7.190825 1.735925 4e-06 -8.162927 0.0 -1.861897 -22.861469 -6.167942 -1e-06 -2e-06 -2e-06 179.304749 -1.679182 -9.08611 15.692338 -0.072597 0.103103 -82.967934 -1.366992 -1.920561 -4.751984 1.427988 2.115677 -0.999999 0.0 0.0 -3.950011 -4.546298 4.299838 17.61038 -0.095999 0.209731 -82.24411 -0.756721 -4.62939 -4.986916 0.734917 1.681072 -1.000002 0.0 0.0 
0.0 0.0 0.0 0.0 -0.0 0.0 0.043353 99.572205 0.703254 90.558319 0.740174 90.180511 -1.017647 1.652428 0.31823 -11.254578 0.053521 0.329619 15.607474 -0.13657 -1.284066 8.012008 -10.273162 2.89104 -2.487778 0.10132 7.96871 -44.737934 -2.148396 12.474014 6e-06 -0.0 -2e-06 0.069744 0.065695 -0.126532 0.297008 -0.134149 -0.07138 0.379821 0.251888 -0.162671 -94.746323 -79.789665 106.594193 43.713219 -12.20538 -74.979889 26.806969 1.237741 -0.531443 1.8335 6.83075 -72.661781 17.636625 -26.322727 52.411182 -19.466654 -14.395596 29.410378 -0.0 -8.774821 -1e-06 16.217079 -17.618305 6.371376 -0.609774 -1.795653 -3.889324 -4.807088 -11.046805 -2.937851 5e-06 -20.976011 -1e-06 -5.019973 -25.033552 -4.031878 5e-06 2e-06 1e-06 -10.634533 -5.68697 -3.565584 10.573274 -17.922945 -3.113902 3e-06 -13.821205 1e-06 -0.50178 -31.181498 -4.027014 -12.3563 -61.006676 7.903168 -13.982712 -7.150197 -2.87504 13.772729 -8.401489 -3.218241 0.347736 -34.21154 0.771653 -0.963031 -17.733364 2.62102 1e-06 0.0 -0.0 -17.346415 -20.095211 -4.20178 21.757557 -1.638377 3.866426 2e-06 -6.338821 -1e-06 -1.69759 -22.591742 -6.194005 -0.0 -3e-06 -2e-06 138.161835 -85.811279 54.32513 37.013451 -26.729532 -76.154068 49.021156 -2.597774 0.216942 -9.926621 9.043683 -67.361267 22.182117 -20.375893 49.933319 -16.701811 -16.743526 28.476528 -4e-06 -12.690601 -2e-06 15.813985 -17.508228 3.501544 -0.10592 -1.513857 -4.275881 -5.03904 -5.61287 -2.953559 2e-06 -11.020523 0.0 -6.111297 -15.89533 -3.840472 0.0 2e-06 -1e-06 -10.283369 -5.680288 -4.341839 11.028296 -11.302406 -2.372633 -1.384268 -14.238582 -6.320123 -0.625436 -26.924191 -3.8276 -4.993151 -49.990337 -2.833677 -13.708524 -7.363476 -3.720942 18.141146 -14.052739 -3.242676 8e-06 -18.78727 -4e-06 -0.429712 -8.456043 2.555503 2e-06 -0.0 0.0 -15.923532 -20.094482 -5.473587 30.419205 -7.190823 1.735924 3e-06 -8.162925 -0.0 -1.861901 -22.861467 -6.167943 -1e-06 -2e-06 -2e-06 179.405151 -1.624342 -9.051185 15.696218 -0.076203 0.083799 -83.022858 -1.431374 -1.928995 -4.71215 1.415172 2.115842 -0.999999 0.0 0.0 -3.905117 -4.58851 4.3433 17.689339 -0.096683 0.197996 -82.335251 -0.736055 -4.61139 -4.979379 0.737143 1.676997 -1.000003 -0.0 -0.0 
